# xmcd
#
# Track frame offsets:
#	150
#	13467
#	30337
#	44340
#	62157
#	76027
#	91135
#	103085
#	108640
#	125020
#	144822
#	156600
#	174245
#	185265
#	198637
#	221035
#
# Disc length: 3094 seconds
#
# Revision: 4
# Processed by: cddbd v1.4PL0 Copyright (c) Steve Scherf et al.
# Submitted via: dBpowerAMP V4.0
#
DISCID=dd0c1410
DTITLE=Георгий Васильев и Алексей Иващенко - Припадки Молодости (Предпоследний)
DYEAR=2000
DGENRE=blues
TTITLE0=Который час
TTITLE1=Бесконечный день
TTITLE2=Гудок
TTITLE3=Ягоды жуя
TTITLE4=Мерседетый шестисос
TTITLE5=Жизнерадостные горемыки
TTITLE6=Перья от павлина
TTITLE7=У штурвала
TTITLE8=Я тот же самый человек
TTITLE9=Льготный билет
TTITLE10=Двадцать метров
TTITLE11=Утро
TTITLE12=Пробежка вдоль Мексиканского залива
TTITLE13=Пора по пиву
TTITLE14=Вечный думатель
TTITLE15=Бедное Му-му
EXTD=(с) Г. Васильевб А. Иващенко,\n(с)Продюсерская компания "Ай Ви Си"\n(ЗАО "Ай Ви Си") 2000 г.
EXTT0=
EXTT1=
EXTT2=
EXTT3=
EXTT4=
EXTT5=
EXTT6=
EXTT7=
EXTT8=
EXTT9=
EXTT10=
EXTT11=
EXTT12=
EXTT13=
EXTT14=
EXTT15=
PLAYORDER=
